<svg width="328" height="121" viewBox="0 0 328 121" fill="none" xmlns="http://www.w3.org/2000/svg">
<path d="M35.8807 94H0.0625V0.909088H35.517C45.0928 0.909088 53.3655 2.77273 60.3352 6.5C67.3352 10.197 72.7292 15.5303 76.5171 22.5C80.3352 29.4394 82.2443 37.7576 82.2443 47.4545C82.2443 57.1515 80.3504 65.4848 76.5625 72.4545C72.7746 79.3939 67.411 84.7273 60.4716 88.4545C53.5322 92.1515 45.3352 94 35.8807 94ZM25.3352 72.5455H34.9716C39.5777 72.5455 43.5019 71.803 46.7443 70.3182C50.017 68.8333 52.5019 66.2727 54.1989 62.6364C55.9261 59 56.7898 53.9394 56.7898 47.4545C56.7898 40.9697 55.911 35.9091 54.1534 32.2727C52.4261 28.6364 49.8807 26.0758 46.517 24.5909C43.1837 23.1061 39.0928 22.3636 34.2443 22.3636H25.3352V72.5455ZM127.938 95.2727C120.362 95.2727 113.877 93.7727 108.483 90.7727C103.089 87.7424 98.9527 83.5303 96.0739 78.1364C93.1951 72.7121 91.7557 66.4242 91.7557 59.2727C91.7557 52.1212 93.1951 45.8485 96.0739 40.4545C98.9527 35.0303 103.089 30.8182 108.483 27.8182C113.877 24.7879 120.362 23.2727 127.938 23.2727C135.513 23.2727 141.998 24.7879 147.392 27.8182C152.786 30.8182 156.922 35.0303 159.801 40.4545C162.68 45.8485 164.119 52.1212 164.119 59.2727C164.119 66.4242 162.68 72.7121 159.801 78.1364C156.922 83.5303 152.786 87.7424 147.392 90.7727C141.998 93.7727 135.513 95.2727 127.938 95.2727ZM128.119 76.7273C130.241 76.7273 132.074 76.0152 133.619 74.5909C135.165 73.1667 136.362 71.1364 137.21 68.5C138.059 65.8636 138.483 62.7273 138.483 59.0909C138.483 55.4242 138.059 52.2879 137.21 49.6818C136.362 47.0455 135.165 45.0152 133.619 43.5909C132.074 42.1667 130.241 41.4545 128.119 41.4545C125.877 41.4545 123.953 42.1667 122.347 43.5909C120.741 45.0152 119.513 47.0455 118.665 49.6818C117.816 52.2879 117.392 55.4242 117.392 59.0909C117.392 62.7273 117.816 65.8636 118.665 68.5C119.513 71.1364 120.741 73.1667 122.347 74.5909C123.953 76.0152 125.877 76.7273 128.119 76.7273ZM219.574 63.4545V24.1818H244.665V94H220.847V80.7273H220.119C218.604 85.1818 215.953 88.6667 212.165 91.1818C208.377 93.6667 203.877 94.9091 198.665 94.9091C193.786 94.9091 189.513 93.7879 185.847 91.5455C182.21 89.303 179.377 86.2121 177.347 82.2727C175.347 78.3333 174.331 73.8182 174.301 68.7273V24.1818H199.392V63.4545C199.422 66.9091 200.301 69.6212 202.028 71.5909C203.786 73.5606 206.241 74.5455 209.392 74.5455C211.483 74.5455 213.286 74.1061 214.801 73.2273C216.347 72.3182 217.528 71.0455 218.347 69.4091C219.195 67.7424 219.604 65.7576 219.574 63.4545ZM302.517 120.182V82.5455H302.153C301.184 84.9091 299.79 87.0303 297.972 88.9091C296.184 90.7576 294.002 92.2273 291.426 93.3182C288.881 94.3788 285.972 94.9091 282.699 94.9091C277.729 94.9091 273.153 93.6061 268.972 91C264.82 88.3939 261.487 84.4394 258.972 79.1364C256.487 73.8333 255.244 67.1515 255.244 59.0909C255.244 50.6667 256.547 43.8182 259.153 38.5455C261.79 33.2727 265.184 29.4091 269.335 26.9545C273.517 24.5 277.911 23.2727 282.517 23.2727C285.972 23.2727 289.002 23.8788 291.608 25.0909C294.214 26.2727 296.396 27.8636 298.153 29.8636C299.911 31.8333 301.244 34 302.153 36.3636H302.699V24.1818H327.608V120.182H302.517ZM291.972 75.6364C294.275 75.6364 296.244 74.9697 297.881 73.6364C299.547 72.2727 300.82 70.3636 301.699 67.9091C302.608 65.4242 303.062 62.4848 303.062 59.0909C303.062 55.6364 302.608 52.6818 301.699 50.2273C300.82 47.7424 299.547 45.8485 297.881 44.5455C296.244 43.2121 294.275 42.5455 291.972 42.5455C289.669 42.5455 287.699 43.2121 286.062 44.5455C284.456 45.8485 283.214 47.7424 282.335 50.2273C281.487 52.6818 281.062 55.6364 281.062 59.0909C281.062 62.5455 281.487 65.5152 282.335 68C283.214 70.4545 284.456 72.3485 286.062 73.6818C287.699 74.9848 289.669 75.6364 291.972 75.6364Z" fill="#AD00FF"/>
</svg>
